# xmcd
#
# Track frame offsets:
#  150
#  19637
#  36117
#  52125
#  69670
#  86250
#  103487
#  117922
#  137697
#  157060
#
# Disc length: 2246 seconds
#
# Revision: 0
# Processed by: cddbd v1.4PL0 Copyright (c) Steve Scherf et al.
# Submitted via: AltoMP3_Maker 3.0
#
DISCID=8908c40a
DTITLE=Kenny Rogers - Branson City Limits
DYEAR=1900
DGENRE=
TTITLE0=Coward of the County
TTITLE1=Lucille
TTITLE2=The Gambler
TTITLE3=Lady
TTITLE4=Don't Fall in Love with a Dreamer
TTITLE5=We've Got Tonight
TTITLE6=Love the World Away
TTITLE7=Through the Years
TTITLE8=Sweet Music Man
TTITLE9=Blaze of Glory
EXTD=
EXTT0=
EXTT1=
EXTT2=
EXTT3=
EXTT4=
EXTT5=
EXTT6=
EXTT7=
EXTT8=
EXTT9=
PLAYORDER=
